<?xml version="1.0" encoding="utf-8"?>
<svg width="24" height="24" viewBox="0 0 24 24" fill="none" xmlns="http://www.w3.org/2000/svg">
<path fill-rule="evenodd" clip-rule="evenodd" d="M20.9999 12.2045C20.9999 11.5664 20.9415 10.9527 20.8329 10.3636H12.1836V13.845H17.1261C16.9132 14.97 16.2662 15.9232 15.2935 16.5614V18.8195H18.2615C19.9981 17.2527 20.9999 14.9455 20.9999 12.2045Z" fill="#4285F4"/>
<path fill-rule="evenodd" clip-rule="evenodd" d="M12.1837 21C14.6633 21 16.7421 20.1941 18.2616 18.8196L15.2936 16.5614C14.4712 17.1014 13.4193 17.4205 12.1837 17.4205C9.79174 17.4205 7.76716 15.8373 7.04499 13.71H3.97681V16.0418C5.48794 18.9832 8.59369 21 12.1837 21Z" fill="#34A853"/>
<path fill-rule="evenodd" clip-rule="evenodd" d="M7.04499 13.71C6.86132 13.17 6.75696 12.5932 6.75696 12C6.75696 11.4068 6.86132 10.83 7.04499 10.29V7.95818H3.97681C3.35482 9.17318 3 10.5477 3 12C3 13.4523 3.35482 14.8268 3.97681 16.0418L7.04499 13.71Z" fill="#FBBC05"/>
<path fill-rule="evenodd" clip-rule="evenodd" d="M12.1837 6.57955C13.532 6.57955 14.7426 7.03364 15.6943 7.92545L18.3284 5.34409C16.7379 3.89182 14.6591 3 12.1837 3C8.59369 3 5.48794 5.01682 3.97681 7.95818L7.04499 10.29C7.76716 8.16273 9.79174 6.57955 12.1837 6.57955Z" fill="#EA4335"/>
</svg>
