<svg width="545" height="52" viewBox="0 0 545 52" fill="none" xmlns="http://www.w3.org/2000/svg">
<path d="M70.3558 1.63137C84.509 1.63137 94.3547 11.8275 94.3547 25.6941C94.3547 39.5608 84.509 49.7569 70.3558 49.7569C56.2026 49.7569 46.3569 39.5608 46.3569 25.6941C46.3569 11.8275 56.4077 1.63137 70.3558 1.63137ZM70.3558 8.76863C60.9203 8.76863 54.7668 15.9059 54.7668 25.6941C54.7668 35.2784 60.9203 42.6196 70.3558 42.6196C79.7913 42.6196 85.9448 35.2784 85.9448 25.6941C85.9448 16.1098 79.7913 8.76863 70.3558 8.76863Z" fill="#003D58"/>
<path d="M99.4824 44.6588V6.72942C99.4824 3.87451 101.123 2.44706 103.79 2.44706H116.917C131.481 2.44706 141.532 12.0314 141.532 25.898C141.532 39.3569 131.686 48.9412 116.917 48.9412H103.79C101.123 48.9412 99.4824 47.5137 99.4824 44.6588ZM116.917 41.8039C127.173 41.8039 133.122 34.4627 133.122 25.6941C133.122 16.7216 127.584 9.58432 116.917 9.58432H107.687V41.8039H116.917Z" fill="#003D58"/>
<path d="M146.66 44.6588V6.72942C146.66 3.87451 148.301 2.44706 150.967 2.44706H175.582C177.633 2.44706 179.274 4.07844 179.274 6.11765C179.274 8.15687 177.633 9.58432 175.582 9.58432H154.865V21.6157H174.966C177.017 21.6157 178.658 23.2471 178.658 25.0824C178.658 27.1216 177.017 28.7529 174.966 28.7529H154.865V41.6H175.582C177.633 41.6 179.274 43.2314 179.274 45.0667C179.274 47.1059 177.633 48.7373 175.582 48.7373H150.967C148.301 48.9412 146.66 47.5137 146.66 44.6588Z" fill="#003D58"/>
<path d="M183.171 25.6941C183.171 11.4196 193.837 1.63137 207.17 1.63137C214.144 1.63137 219.477 4.28235 223.374 8.36079C223.784 8.76863 223.989 9.58432 223.989 10.1961C223.989 11.6235 222.759 12.8471 221.323 12.8471C220.502 12.8471 219.682 12.4392 219.272 12.0314C216.4 8.76863 212.093 6.72941 207.375 6.72941C197.324 6.72941 189.53 14.4784 189.53 25.6941C189.53 36.7059 197.324 44.6588 207.375 44.6588C212.093 44.6588 216.4 42.6196 219.272 39.3569C219.682 38.7451 220.502 38.5412 221.323 38.5412C222.759 38.5412 223.989 39.7647 223.989 41.1922C223.989 41.8039 223.784 42.6196 223.374 43.0275C219.272 47.3098 214.349 49.7569 207.17 49.7569C193.632 49.7569 183.171 39.9686 183.171 25.6941Z" fill="#00AEEF"/>
<path d="M262.552 46.4941V27.7333H235.066V46.4941C235.066 48.1255 233.63 49.349 232.194 49.349C230.553 49.349 229.323 47.9216 229.323 46.4941V4.89412C229.323 3.26274 230.553 2.03922 232.194 2.03922C233.835 2.03922 235.066 3.46667 235.066 4.89412V22.4314H262.552V4.89412C262.552 3.26274 263.782 2.03922 265.423 2.03922C267.064 2.03922 268.295 3.46667 268.295 4.89412V46.2902C268.295 47.9216 267.064 49.1451 265.423 49.1451C263.782 49.349 262.552 47.9216 262.552 46.4941Z" fill="#00AEEF"/>
<path d="M315.473 46.2902C315.473 47.9216 314.037 49.349 312.601 49.349C311.37 49.349 310.14 48.5333 309.729 47.5137L306.447 38.7451H282.244L278.962 47.5137C278.551 48.5333 277.526 49.349 276.295 49.349C274.654 49.349 273.218 47.9216 273.218 46.4941C273.218 46.0863 273.423 45.6784 273.423 45.2706L289.628 5.30196C290.448 3.46667 292.294 2.03922 294.345 2.03922C296.602 2.03922 298.448 3.46667 299.063 5.30196L315.268 45.2706C315.268 45.4745 315.473 45.8824 315.473 46.2902ZM304.396 33.4431L294.345 7.5451L284.295 33.4431H304.396Z" fill="#00AEEF"/>
<path d="M352.394 47.7176L325.933 11.4196V46.4941C325.933 48.1255 324.498 49.349 323.062 49.349C321.421 49.349 320.19 47.9216 320.19 46.4941V5.91372C320.19 3.87451 321.831 2.03922 324.087 2.03922C325.318 2.03922 326.549 2.65098 327.164 3.67059L353.214 39.3569V4.89412C353.214 3.26274 354.65 2.03922 356.086 2.03922C357.727 2.03922 358.958 3.46667 358.958 4.89412V45.6784C358.958 47.7176 357.317 49.349 355.265 49.349C354.035 49.349 353.009 48.7373 352.394 47.7176Z" fill="#00AEEF"/>
<path d="M407.776 28.1412V39.5608C407.776 41.1922 407.366 42.4157 406.135 43.4353C401.827 47.3098 396.084 49.9608 389.315 49.9608C375.982 49.9608 365.111 40.1726 365.111 25.6941C365.111 11.2157 375.777 1.63137 389.315 1.63137C396.289 1.63137 401.417 4.07843 405.519 8.15686C405.93 8.56471 406.34 9.17647 406.34 9.99216C406.34 11.6235 405.109 12.6431 403.673 12.6431C402.853 12.6431 402.238 12.4392 401.622 11.8275C398.545 8.76863 394.238 6.72941 389.315 6.72941C379.059 6.72941 371.265 14.4784 371.265 25.6941C371.265 36.7059 379.059 44.6588 389.315 44.6588C394.853 44.6588 399.571 42.0078 401.827 39.5608V29.9765H388.084C386.649 29.9765 385.418 28.7529 385.418 27.3255C385.418 25.898 386.649 24.6745 388.084 24.6745H404.699C406.545 25.0824 407.776 26.102 407.776 28.1412Z" fill="#00AEEF"/>
<path d="M414.339 45.8824V5.50589C414.339 3.46667 415.365 2.44706 417.416 2.44706H442.646C444.082 2.44706 445.312 3.67059 445.312 5.09804C445.312 6.5255 444.082 7.74902 442.646 7.74902H420.083V22.8392H442.236C443.671 22.8392 444.902 24.0628 444.902 25.4902C444.902 26.9177 443.671 28.1412 442.236 28.1412H420.083V44.251H442.646C444.082 44.251 445.312 45.4745 445.312 46.902C445.312 48.3294 444.082 49.5529 442.646 49.5529H417.416C415.57 48.9412 414.339 47.9216 414.339 45.8824Z" fill="#00AEEF"/>
<path d="M485.311 46.698C485.311 47.9216 484.285 49.349 482.439 49.349C481.414 49.349 480.593 48.9412 479.978 48.1255L467.671 30.5882H457.415V46.4941C457.415 48.1255 455.979 49.349 454.543 49.349C452.902 49.349 451.671 47.9216 451.671 46.4941V5.50589C451.671 3.46667 452.697 2.44706 454.748 2.44706H470.542C479.157 2.44706 485.311 7.95295 485.311 16.5177C485.311 24.4706 480.183 28.9569 474.029 29.9765L484.695 44.8628C485.106 45.2706 485.311 45.6784 485.311 46.698ZM457.415 25.2863H469.722C475.26 25.2863 479.157 21.6157 479.157 16.3137C479.157 11.0118 475.26 7.34118 469.722 7.34118H457.415V25.2863Z" fill="#00AEEF"/>
<path d="M534.744 2.8549C534.949 2.8549 534.949 2.8549 534.949 3.05883V3.46667C534.949 3.67059 534.949 3.67059 534.744 3.67059H532.898V10.1961C532.898 10.4 532.898 10.4 532.693 10.4H532.078C531.872 10.4 531.872 10.4 531.872 10.1961V3.87451H530.026C529.821 3.87451 529.821 3.87451 529.821 3.67059V3.05883C529.821 2.8549 529.821 2.8549 530.026 2.8549H534.744Z" fill="#00AEEF"/>
<path d="M542.334 10.1961C542.334 10.4 542.334 10.4 542.129 10.4H541.513C541.308 10.4 541.308 10.4 541.308 10.1961V5.09804C541.308 5.09804 541.308 5.09804 541.308 5.30196V5.50588V5.70981V5.91373L540.077 8.97255C540.077 9.17647 539.872 9.17647 539.872 9.17647H539.257H539.052C539.052 9.17647 539.052 9.17647 539.052 8.97255L537.616 5.70981V5.50588V5.30196V5.09804V10.1961C537.616 10.4 537.616 10.4 537.411 10.4H536.795C536.59 10.4 536.59 10.4 536.59 10.1961V3.05883C536.59 2.8549 536.59 2.8549 536.795 2.8549H537.411C537.411 2.8549 537.616 2.8549 537.616 3.05883L539.667 7.5451V7.74902V7.95294V8.15686V7.95294V7.74902V7.5451L541.513 3.05883C541.513 3.05883 541.513 3.05883 541.718 3.05883H542.334C542.539 3.05883 542.539 3.05883 542.539 3.26275V10.1961H542.334Z" fill="#00AEEF"/>
<path d="M42.8699 8.15686C38.3573 4.07843 32.6139 1.8353 26.4604 1.8353C25.2297 1.8353 23.999 1.8353 22.9734 2.03922C22.5631 2.03922 21.9478 2.24314 21.5375 2.44706L21.1273 2.65098C20.7171 2.65098 20.3068 2.8549 20.1017 3.05883C18.871 2.44706 17.6403 2.03922 16.4096 2.03922C12.5123 2.03922 9.43555 5.09804 9.43555 8.76863C9.43555 12.4392 12.5123 15.702 16.2045 15.702C19.6915 15.702 22.5631 13.051 22.9734 9.78824C23.1785 9.78824 23.5887 9.58432 23.7938 9.58432C24.6143 9.38039 25.4348 9.38039 26.2553 9.38039C30.3576 9.38039 34.46 11.0118 37.5368 13.6627C38.3573 14.2745 39.1777 14.6824 39.9982 14.6824C41.0238 14.6824 42.0494 14.2745 42.8699 13.4588C44.5108 12.0314 44.3057 9.58432 42.8699 8.15686ZM16.4096 12.2353C14.5635 12.2353 12.9226 10.8078 12.9226 8.76863C12.9226 6.93334 14.5635 5.30196 16.4096 5.30196C17.6403 5.30196 18.6659 5.91373 19.2812 6.72941C19.4864 7.13726 19.6915 7.5451 19.8966 8.15686C19.8966 8.36079 19.8966 8.56471 19.8966 8.56471C19.8966 10.8078 18.2556 12.2353 16.4096 12.2353Z" fill="#003D58"/>
<path d="M19.8966 8.36078C19.6915 7.95294 19.4864 7.34118 19.2812 6.93333C19.4864 7.34118 19.6915 7.74902 19.8966 8.36078Z" fill="#003D58"/>
<path d="M26.4603 49.7569C13.1276 49.7569 2.25635 38.949 2.25635 25.6941C2.25635 23.2471 2.66658 20.5961 3.48706 18.3529C4.10241 16.3137 6.35872 15.2941 8.20479 15.9059C10.256 16.5176 11.2816 18.7608 10.6662 20.5961C10.256 22.4314 10.0509 24.0627 10.0509 25.898C10.0509 34.8706 17.4351 42.4157 26.6655 42.4157C30.7678 42.4157 34.8702 40.7843 37.947 37.9294C39.3828 36.502 41.8442 36.502 43.2801 38.1333C44.7159 39.5608 44.7159 42.0078 43.0749 43.4353C38.5623 47.5137 32.6139 49.7569 26.4603 49.7569Z" fill="#003D58"/>
<path d="M519.565 2.03922C518.13 2.03922 516.694 2.44706 515.463 3.26275C513.002 2.24314 510.335 1.8353 507.053 1.8353C497.207 1.8353 490.233 7.13726 490.233 15.0902C490.233 21.4118 494.336 24.4706 499.259 26.5098C501.105 27.1216 502.951 26.3059 503.771 24.6745C504.387 23.2471 503.566 21.6157 502.13 21.0039C498.848 19.7804 496.387 17.9451 496.387 14.8863C496.387 10.4 500.489 7.34118 506.643 7.34118C508.694 7.34118 510.745 7.74902 512.591 8.36079C512.591 8.56471 512.591 8.76863 512.591 8.97255C512.591 12.6431 515.668 15.9059 519.565 15.9059C523.258 15.9059 526.539 12.8471 526.539 8.97255C526.334 5.09804 523.258 2.03922 519.565 2.03922ZM519.565 12.2353C517.719 12.2353 516.078 10.6039 516.078 8.76863C516.078 6.93334 517.719 5.30196 519.565 5.30196C521.411 5.30196 523.052 6.93334 523.052 8.76863C523.052 10.8078 521.411 12.2353 519.565 12.2353Z" fill="#00AEEF"/>
<path d="M513.822 24.4706C512.386 24.0627 510.95 24.6745 510.13 25.898C509.925 26.3059 509.72 26.5098 509.72 26.9176C509.104 28.1412 509.72 29.7725 511.155 30.1804C515.463 31.6078 518.745 33.6471 518.745 37.9294C518.745 41.6 516.078 46.0863 507.463 46.0863C501.925 46.0863 497.618 43.8431 494.336 40.9882C493.925 40.5804 493.105 40.3765 492.49 40.3765C490.849 40.3765 489.413 41.8039 489.618 43.6392C489.618 44.251 490.028 45.0667 490.644 45.4745C494.541 48.9412 500.284 51.3882 507.258 51.3882C520.181 51.3882 524.898 44.251 524.898 37.3176C524.898 29.5686 519.77 26.5098 513.822 24.4706Z" fill="#00AEEF"/>
</svg>
