<?xml version="1.0" encoding="utf-8"?>
<!-- Generator: Adobe Illustrator 22.0.1, SVG Export Plug-In . SVG Version: 6.00 Build 0)  -->
<svg version="1.1" id="Layer_1" xmlns="http://www.w3.org/2000/svg" xmlns:xlink="http://www.w3.org/1999/xlink" x="0px" y="0px"
	 viewBox="0 0 57.6 57.6" style="enable-background:new 0 0 57.6 57.6;" xml:space="preserve">
<style type="text/css">
	.st0{fill:#00AEEF;}
	.st1{fill:#003D58;}
</style>
<g>
	<g>
		<g>
			<path class="st0" d="M51.4,12.9c0,2.3-1.9,4.2-4.1,4.2c-2.3,0-4.2-1.9-4.2-4.2c0-0.3,0-0.7,0.1-1c-4.4-3.3-9.7-4.8-15.1-4.2
				c-5.7,0.6-10.8,3.4-14.4,7.8c-5.6,6.9-6.3,16.7-1.8,24.3c0.6,1,0.3,2.4-0.8,3c-0.3,0.2-0.7,0.3-1.1,0.3c-0.7,0-1.5-0.4-1.9-1.1
				c-5.4-9.2-4.5-21,2.2-29.2c4.3-5.4,10.5-8.7,17.3-9.4C34.4,2.6,41,4.6,46.3,8.8c0.3-0.1,0.6-0.1,0.9-0.1
				C49.6,8.7,51.4,10.6,51.4,12.9z"/>
		</g>
		<g>
			<g>
				<path class="st0" d="M51.5,39.8c-1-0.6-2.4-0.3-3,0.7c-0.4,0.7-0.9,1.4-1.5,2c-6.2,7.7-16.8,10.1-25.6,6c0-2.3-1.9-4.1-4.2-4.1
					c-2.3,0-4.2,1.9-4.2,4.2c0,2.3,1.9,4.2,4.2,4.2c0.7,0,1.3-0.2,1.9-0.5c3.6,1.8,7.4,2.6,11.2,2.6c7.6,0,15-3.3,20.1-9.6
					c0.6-0.8,1.2-1.6,1.8-2.4C52.8,41.8,52.5,40.4,51.5,39.8z M17.2,50.7c-1.2,0-2.2-1-2.2-2.2s1-2.2,2.2-2.2s2.2,1,2.2,2.2
					S18.4,50.7,17.2,50.7z"/>
			</g>
		</g>
	</g>
</g>
<g>
	<g>
		<g>
			<g>
				<path class="st1" d="M41.5,17.6c-2.8-2.6-6.6-4.1-10.5-4.1c-1.4,0-2.8,0.2-4.1,0.5c-0.1,0-0.2,0.1-0.3,0.1
					c-0.7-0.4-1.4-0.7-2.2-0.7c-2.3,0-4.2,1.9-4.2,4.2c0,2.3,1.9,4.2,4.2,4.2c2.1,0,3.9-1.6,4.1-3.7c0.8-0.2,1.7-0.3,2.6-0.3
					c2.8,0,5.5,1,7.5,2.9c0.4,0.4,0.9,0.6,1.5,0.6c0.6,0,1.2-0.2,1.6-0.7C42.4,19.8,42.4,18.4,41.5,17.6z M24.3,19.9
					c-1.2,0-2.2-1-2.2-2.2s1-2.2,2.2-2.2s2.2,1,2.2,2.2S25.5,19.9,24.3,19.9z"/>
			</g>
		</g>
		<g>
			<path class="st1" d="M31,44.5c-8.5,0-15.5-6.9-15.5-15.5c0-1.6,0.3-3.2,0.8-4.8c0.4-1.1,1.6-1.7,2.7-1.4c1.1,0.4,1.7,1.6,1.4,2.7
				c-0.4,1.1-0.5,2.3-0.5,3.5c0,6.2,5,11.2,11.2,11.2c2.8,0,5.5-1.1,7.6-3c0.9-0.8,2.2-0.8,3,0.1c0.8,0.9,0.8,2.2-0.1,3
				C38.7,43,35,44.5,31,44.5z"/>
		</g>
	</g>
</g>
</svg>
